<?xml version="1.0" encoding="UTF-8"?>
<svg version="1.1" xmlns="http://www.w3.org/2000/svg" width="500" height="500">
<path d="M0 0 C7.1915493 4.54619966 11.1753798 11.35166211 13.375 19.4375 C13.89015142 24.43316324 13.84398839 29.39922205 13.765625 34.4140625 C13.75814752 35.83465776 13.75246173 37.25526346 13.74847412 38.6758728 C13.73333587 42.38158577 13.69415982 46.08665314 13.6496582 49.79211426 C13.60117824 54.2558712 13.58311501 58.71984624 13.55984497 63.18379211 C13.52129811 69.93547454 13.44456587 76.68574564 13.375 83.4375 C3.805 83.4375 -5.765 83.4375 -15.625 83.4375 C-15.295 110.8275 -14.965 138.2175 -14.625 166.4375 C-10.335 160.1675 -6.045 153.8975 -1.625 147.4375 C-0.305 146.1175 1.015 144.7975 2.375 143.4375 C8.21067428 150.83019801 13.7654986 158.34800739 19.0559082 166.140625 C22.57232257 171.30710103 26.19848927 176.38392548 29.875 181.4375 C34.21474423 187.41177753 38.49546165 193.42099425 42.6875 199.5 C43.161875 200.18513672 43.63625 200.87027344 44.125 201.57617188 C47.375 206.31453524 47.375 206.31453524 47.375 207.4375 C14.55907809 210.12195319 14.55907809 210.12195319 6.52636719 205.96240234 C2.46655867 202.25098874 0.29542676 197.71001573 -1.69824219 192.64794922 C-3.08835586 189.33233035 -5.03740028 186.67485262 -7.125 183.75 C-8.2930112 181.98005321 -9.4597242 180.20924889 -10.625 178.4375 C-11.945 176.4575 -13.265 174.4775 -14.625 172.4375 C-14.955 183.9875 -15.285 195.5375 -15.625 207.4375 C-25.855 207.4375 -36.085 207.4375 -46.625 207.4375 C-46.625 166.5175 -46.625 125.5975 -46.625 83.4375 C-55.205 83.4375 -63.785 83.4375 -72.625 83.4375 C-72.625 56.0475 -72.625 28.6575 -72.625 0.4375 C-62.395 0.4375 -52.165 0.4375 -41.625 0.4375 C-41.625 25.5175 -41.625 50.5975 -41.625 76.4375 C-33.705 76.4375 -25.785 76.4375 -17.625 76.4375 C-17.71070964 68.60482334 -17.80456658 60.77234453 -17.91252708 52.93994808 C-17.96234394 49.30253302 -18.0086744 45.66514496 -18.046875 42.02758789 C-18.08391352 38.51316094 -18.130322 34.99896824 -18.18306351 31.48474312 C-18.21044908 29.50023722 -18.22828193 27.51560688 -18.24594116 25.5309906 C-18.33627662 16.78434926 -18.33627662 16.78434926 -20.625 8.4375 C-22.81327127 6.97768811 -22.81327127 6.97768811 -25.625 6.4375 C-26.883125 6.06625 -28.14125 5.695 -29.4375 5.3125 C-30.489375 5.02375 -31.54125 4.735 -32.625 4.4375 C-30.91808851 1.02367702 -27.53840338 0.47776149 -24.0703125 -0.7265625 C-16.53872298 -2.55395497 -7.21525625 -3.19908674 0 0 Z " fill="#8B4513" transform="translate(309.625,150.5625)"/>
<path d="M0 0 C24.32473047 -2.82930059 24.32473047 -2.82930059 31.43994141 1.4765625 C35.50589691 5.48987426 38.0597467 10.40708393 40.6328125 15.45996094 C42.85914348 19.59616585 45.68468256 23.25162485 48.5 27 C49.58776556 28.4990357 50.67240359 30.00034583 51.75390625 31.50390625 C52.29031738 32.24656738 52.82672852 32.98922852 53.37939453 33.75439453 C54.99282251 35.99005445 56.60410578 38.22724516 58.21484375 40.46484375 C64.41926649 49.07880584 70.66895265 57.65705292 76.98022461 66.19311523 C78.08044883 67.68151843 79.16708766 69.18004879 80.24072266 70.68774414 C81.9767153 73.06428552 81.9767153 73.06428552 84.16162109 75.23217773 C92.28571775 84.29561741 91.11836361 94.69777544 91 106.1875 C91.00810351 108.2090021 91.01979139 110.23049318 91.03515625 112.25195312 C91.06480241 117.16881497 91.04581679 122.08328591 91 127 C92.44415283 127.70141113 92.44415283 127.70141113 93.91748047 128.41699219 C95.19250894 129.04336312 96.46740429 129.67000506 97.7421875 130.296875 C98.69194458 130.75682861 98.69194458 130.75682861 99.66088867 131.22607422 C107.08687808 134.89311003 111.29159987 138.62612545 114.4375 146.3125 C117.29314689 155.32255829 116.51155393 163.28165921 113 172 C107.3165218 182.55503094 97.87624592 186.44220363 87 190 C88.2684375 190.36351562 88.2684375 190.36351562 89.5625 190.734375 C99.85738789 193.77604642 110.30862668 196.88414434 116.51171875 206.29296875 C121.62169796 215.73691314 122.00392617 224.69886504 119 235 C114.72297708 243.77915231 107.99309749 249.39944252 99 253 C91.78597914 255.42753173 84.53574695 255.20964984 77 255 C77.99 254.34 78.98 253.68 80 253 C86.46034482 248.42829427 89.51645131 243.46622975 91.58203125 235.85546875 C93.52276204 222.59683133 93.55878679 208.19895986 85.375 197.0625 C81.72139941 193.14523752 77.00741952 191.59326985 72 190 C74.31188334 188.25612248 76.63636588 186.54924084 79 184.875 C85.58204533 179.29023427 87.08096478 170.18054806 88 162 C88.88019483 151.23691591 87.17899202 140.72792522 80.75 131.83984375 C78.39665698 129.36568178 75.97222467 128.03599705 72.83203125 126.75390625 C71 126 71 126 68 124 C71.96 124 75.92 124 80 124 C72.04728958 113.32955661 64.04119884 102.71051475 55.84667969 92.22436523 C52.00893751 87.30963897 48.23774243 82.35173476 44.51171875 77.3515625 C39.11334332 70.12510598 33.61022187 62.97661789 28.13916016 55.80517578 C26.01196859 53.01569494 23.88652578 50.22489126 21.76171875 47.43359375 C21.07343994 46.5310083 20.38516113 45.62842285 19.67602539 44.69848633 C18.31649683 42.90978627 16.96273611 41.11668653 15.61499023 39.3190918 C12.79074968 35.56604331 9.98201055 31.89481474 6.7734375 28.4609375 C0.18084149 21.242335 -0.92790859 15.62436785 -0.51171875 6.09326172 C-0.37566923 4.05957024 -0.19283895 2.02909429 0 0 Z " fill="#8B4513" transform="translate(43,103)"/>
<path d="M0 0 C10.33870828 0 20.68142554 0.3550891 31 1 C31 44.23 31 87.46 31 132 C20.77 132 10.54 132 0 132 C0 88.44 0 44.88 0 0 Z " fill="#8B4513" transform="translate(67,226)"/>
<path d="M0 0 C10.23 0 20.46 0 31 0 C31 27.39 31 54.78 31 83 C20.77 83 10.54 83 0 83 C0 55.61 0 28.22 0 0 Z " fill="#8B4513" transform="translate(426,151)"/>
<path d="M0 0 C9.20814054 3.03036263 15.15956609 8.74948281 19.60546875 17.234375 C21.37661522 21.34677947 21.63838815 24.93029072 21.62915039 29.40136719 C21.62907486 30.62233093 21.62899933 31.84329468 21.62892151 33.10125732 C21.62376022 34.41491272 21.61859894 35.72856812 21.61328125 37.08203125 C21.61141521 38.44394885 21.60999218 39.80586713 21.60899353 41.16778564 C21.60518303 44.74507514 21.59536532 48.32232377 21.58428955 51.89959717 C21.57404384 55.55285072 21.56943429 59.2061111 21.56445312 62.859375 C21.55427291 70.02217146 21.53469755 77.18485583 21.515625 84.34765625 C11.285625 84.34765625 1.055625 84.34765625 -9.484375 84.34765625 C-9.52175781 79.60390625 -9.55914062 74.86015625 -9.59765625 69.97265625 C-9.62795562 66.95569381 -9.6591162 63.93878897 -9.69335938 60.921875 C-9.74755225 56.14016731 -9.79866694 51.35857354 -9.83081055 46.57666016 C-9.85694503 42.71852112 -9.89741769 38.86076769 -9.94756126 35.00286865 C-9.96416178 33.53583598 -9.97571831 32.06873672 -9.98198891 30.60162354 C-9.71959548 18.07414085 -9.71959548 18.07414085 -15.3515625 7.32421875 C-16.34542969 6.65519531 -16.34542969 6.65519531 -17.359375 5.97265625 C-18.05804688 5.49828125 -18.75671875 5.02390625 -19.4765625 4.53515625 C-21.73983413 3.19656758 -23.97198379 2.1327785 -26.484375 1.34765625 C-19.73041956 -3.15498071 -7.74159896 -1.44938007 0 0 Z " fill="#8B4513" transform="translate(229.484375,273.65234375)"/>
<path d="M0 0 C1.85625 0.0309375 1.85625 0.0309375 3.75 0.0625 C3.151875 0.495625 2.55375 0.92875 1.9375 1.375 C-1.87876895 4.3189789 -3.67447764 6.44358548 -5.25 11.0625 C-5.55489866 13.64861616 -5.55489866 13.64861616 -5.5246582 16.3684082 C-5.53419022 17.40330887 -5.54372223 18.43820953 -5.55354309 19.50447083 C-5.55263168 20.61287827 -5.55172028 21.72128571 -5.55078125 22.86328125 C-5.55720894 24.58879463 -5.55720894 24.58879463 -5.56376648 26.34916687 C-5.56950422 28.78086693 -5.57001415 31.21258415 -5.56567383 33.64428711 C-5.56252038 37.35104946 -5.58595858 41.05700852 -5.61132812 44.76367188 C-5.61360192 47.13020733 -5.61430424 49.49674492 -5.61328125 51.86328125 C-5.622491 52.965616 -5.63170074 54.06795074 -5.64118958 55.20368958 C-5.59951278 62.19147651 -5.11401764 68.28585498 -0.7421875 74.05078125 C7.87617357 81.10784502 16.87301741 81.61380513 27.75 82.0625 C23.93379172 86.34021367 18.90641414 87.67223167 13.32128906 88.36279297 C10.83070626 88.49894217 8.36903352 88.53031821 5.875 88.5 C4.559552 88.48864014 4.559552 88.48864014 3.2175293 88.47705078 C-3.55406602 88.30517333 -9.23171844 87.32579118 -15.25 84.0625 C-16.03375 83.63839844 -16.8175 83.21429688 -17.625 82.77734375 C-28.28139139 76.3151064 -34.51188795 66.88567729 -38.5625 55.3125 C-41.20140066 42.57916381 -39.21214461 29.64073772 -32.0625 18.75 C-24.3596964 8.67584497 -13.30051928 -0.22167532 0 0 Z " fill="#8B4513" transform="translate(393.25,272.9375)"/>
<path d="M0 0 C-0.47083008 0.71800781 -0.94166016 1.43601563 -1.42675781 2.17578125 C-7.40276718 12.90366398 -5.30382282 28.63622411 -5.26074219 40.48339844 C-5.25002532 43.9917123 -5.26068005 47.49951422 -5.2734375 51.0078125 C-6.09903376 70.29159312 -6.09903376 70.29159312 0 88 C-10.47386015 87.65087133 -18.73866242 83.50607614 -26.375 76.375 C-35.77503933 66.32511872 -39.52481668 54.58159643 -39.25 41.046875 C-38.21833699 28.47348201 -32.90289497 17.91445316 -23.8359375 9.26953125 C-16.87956656 3.70251814 -8.95362873 -0.19896953 0 0 Z " fill="#8B4513" transform="translate(368,149)"/>
<path d="M0 0 C-0.47083008 0.71800781 -0.94166016 1.43601563 -1.42675781 2.17578125 C-7.40276718 12.90366398 -5.30382282 28.63622411 -5.26074219 40.48339844 C-5.25002532 43.9917123 -5.26068005 47.49951422 -5.2734375 51.0078125 C-6.09903376 70.29159312 -6.09903376 70.29159312 0 88 C-10.47386015 87.65087133 -18.73866242 83.50607614 -26.375 76.375 C-35.77503933 66.32511872 -39.52481668 54.58159643 -39.25 41.046875 C-38.21833699 28.47348201 -32.90289497 17.91445316 -23.8359375 9.26953125 C-16.87956656 3.70251814 -8.95362873 -0.19896953 0 0 Z " fill="#8B4513" transform="translate(179,149)"/>
<path d="M0 0 C10.47386015 0.34912867 18.73866242 4.49392386 26.375 11.625 C35.74556329 21.64336751 39.53774261 33.38509218 39.24609375 46.88671875 C38.21971851 59.87118013 32.95605673 70.0265724 23.5546875 78.953125 C16.45204064 84.64393074 9.0677156 87.69774281 0 88 C1.00911458 86.33984375 2.01822917 84.6796875 3.02734375 83.01953125 C5.0831457 78.75105894 5.1321131 74.36980078 5.16113281 69.70019531 C5.17074036 68.44829407 5.1803479 67.19639282 5.19024658 65.90655518 C5.1950959 64.54708032 5.1993744 63.18760333 5.203125 61.828125 C5.20595238 61.13785973 5.20877975 60.44759445 5.21169281 59.73641205 C5.22664985 56.08208335 5.23590076 52.42779376 5.24023438 48.7734375 C5.24570783 45.02006972 5.26972166 41.26706674 5.29820633 37.51381302 C5.31693625 34.60881544 5.32204382 31.70390384 5.32357025 28.79885101 C5.326575 27.41630819 5.33452891 26.03376608 5.34775543 24.65128326 C5.42881729 15.52572084 5.16199465 7.74299198 0 0 Z " fill="#8B4513" transform="translate(379,149)"/>
<path d="M0 0 C10.47386015 0.34912867 18.73866242 4.49392386 26.375 11.625 C35.74556329 21.64336751 39.53774261 33.38509218 39.24609375 46.88671875 C38.21971851 59.87118013 32.95605673 70.0265724 23.5546875 78.953125 C16.45204064 84.64393074 9.0677156 87.69774281 0 88 C1.00911458 86.33984375 2.01822917 84.6796875 3.02734375 83.01953125 C5.0831457 78.75105894 5.1321131 74.36980078 5.16113281 69.70019531 C5.17074036 68.44829407 5.1803479 67.19639282 5.19024658 65.90655518 C5.1950959 64.54708032 5.1993744 63.18760333 5.203125 61.828125 C5.20595238 61.13785973 5.20877975 60.44759445 5.21169281 59.73641205 C5.22664985 56.08208335 5.23590076 52.42779376 5.24023438 48.7734375 C5.24570783 45.02006972 5.26972166 41.26706674 5.29820633 37.51381302 C5.31693625 34.60881544 5.32204382 31.70390384 5.32357025 28.79885101 C5.326575 27.41630819 5.33452891 26.03376608 5.34775543 24.65128326 C5.42881729 15.52572084 5.16199465 7.74299198 0 0 Z " fill="#8B4513" transform="translate(190,149)"/>
<path d="M0 0 C0.98484375 0.00902344 1.9696875 0.01804687 2.984375 0.02734375 C4.10585937 0.04474609 4.10585937 0.04474609 5.25 0.0625 C4.66992188 0.75472656 4.66992188 0.75472656 4.078125 1.4609375 C-2.30512148 9.45579571 -5.56008013 16.99272959 -5.12109375 27.35546875 C-4.57808332 31.31658692 -3.65795055 33.2964007 -0.75 36.0625 C3.20020245 37.92351596 6.87383023 39.0625 11.25 39.0625 C11.25 39.7225 11.25 40.3825 11.25 41.0625 C10.06679424 41.69559191 8.87812152 42.31846718 7.6875 42.9375 C7.02621094 43.28554688 6.36492187 43.63359375 5.68359375 43.9921875 C0.03375148 46.47702985 -5.16109326 47.35607259 -11.3125 47.375 C-12.57191406 47.39175781 -13.83132812 47.40851563 -15.12890625 47.42578125 C-20.07822171 46.92924798 -23.37906877 45.39426177 -26.9375 41.9375 C-30.87039848 35.6991093 -32.46051222 29.83148313 -31.37890625 22.4765625 C-29.21609095 14.17457582 -22.78865349 8.08020536 -15.59765625 3.7734375 C-10.27914277 1.0200916 -6.02930209 -0.07177741 0 0 Z " fill="#8B4513" transform="translate(203.75,313.9375)"/>
<path d="M0 0 C10.26748136 -0.80179898 19.1963702 1.73452341 27.22265625 8.31640625 C34.54249564 15.25014422 38.49419242 24.0557064 40 34 C40 36.31 40 38.62 40 41 C30.43 41 20.86 41 11 41 C10.6875 27.5 10.6875 27.5 10.61206055 23.29101562 C10.41338927 16.5893646 10.11651729 11.00218144 7 5 C5.29747438 3.28399349 5.29747438 3.28399349 3.3125 2.5 C2.219375 2.005 1.12625 1.51 0 1 C0 0.67 0 0.34 0 0 Z " fill="#8B4513" transform="translate(400,273)"/>
<path d="M0 0 C3.70194899 3.34938242 6.26191157 5.88895576 7.0078125 10.99609375 C7.19004175 15.47285904 6.92932054 18.67759875 5.125 22.8125 C0.96711166 27.07433554 -3.08694615 29.09885557 -9 29.8125 C-14.28485436 29.12742629 -17.715734 27.37399694 -21.1875 23.375 C-24.41893706 18.94331489 -24.81868768 15.78798966 -24.375 10.375 C-23.01636558 5.98808405 -21.12214331 2.46558288 -17.25 -0.125 C-11.55573214 -2.86804516 -5.61896696 -2.70542853 0 0 Z " fill="#8B4513" transform="translate(199.375,279.625)"/>
<path d="M0 0 C3.99694665 3.84216739 4.99653689 6.6313648 5.4375 12.1875 C5.31749212 16.17026158 4.34424002 18.88287721 2.125 22.25 C-3.05183002 26.92177343 -6.26853498 27.5978341 -13.109375 27.53515625 C-17.9223343 27.0389048 -20.59034029 24.71185415 -23.6875 21.1875 C-26.20473941 17.08042517 -26.35586689 12.93399971 -25.875 8.25 C-24.01753804 2.98719113 -21.34219523 0.37703666 -16.875 -2.75 C-10.87935887 -4.95892042 -4.87941605 -3.95436009 0 0 Z " fill="#8B4513" transform="translate(451.875,105.75)"/>
<path d="M0 0 C0 17.33333333 0 34.66666667 0 52 C-2.31 52.66 -4.62 53.32 -7 54 C-7 52.02 -7 50.04 -7 48 C-5.35 48.33 -3.7 48.66 -2 49 C-2 48.34 -2 47.68 -2 47 C-3.65 47 -5.3 47 -7 47 C-7 46.34 -7 45.68 -7 45 C-6.01 44.505 -6.01 44.505 -5 44 C-5.66 44 -6.32 44 -7 44 C-7 36.74 -7 29.48 -7 22 C-6.34 22 -5.68 22 -5 22 C-5.66 21.67 -6.32 21.34 -7 21 C-7.77811718 17.18015204 -8.24386556 14.73159669 -7 11 C-7.33 10.01 -7.66 9.02 -8 8 C-7.34 7.01 -6.68 6.02 -6 5 C-6.33 4.01 -6.66 3.02 -7 2 C-4.35261084 0.5393715 -3.10551666 0 0 0 Z M-6 8 C-5.67 8.66 -5.34 9.32 -5 10 C-4.01 9.67 -3.02 9.34 -2 9 C-3.32 8.67 -4.64 8.34 -6 8 Z M-5 32 C-4.67 32.66 -4.34 33.32 -4 34 C-3.34 33.67 -2.68 33.34 -2 33 C-2.99 32.67 -3.98 32.34 -5 32 Z " fill="#8B4513" transform="translate(454,272)"/>
<path d="M0 0 C2.33030405 1.60710624 2.89531369 2.69399385 3.8125 5.375 C4.04015388 8.56215425 3.54198246 10.20974602 2 13 C0.25 14.875 0.25 14.875 -2 16 C-5.09128627 15.87382505 -7.17512277 15.51199276 -9.8125 13.875 C-11.64641794 10.9793401 -11.82182521 8.38532098 -12 5 C-11.2018293 2.315244 -10.47659001 1.3574425 -8.25 -0.3125 C-5.15305467 -1.25878885 -3.09970844 -0.85736616 0 0 Z M-5 2 C-7.16641665 3.66545339 -7.16641665 3.66545339 -9 6 C-9.25153259 8.65904469 -9.25153259 8.65904469 -8 11 C-5.52363988 12.37466625 -5.52363988 12.37466625 -3 13 C-0.78214868 11.24420104 -0.06322446 10.31612229 0.5 7.5 C0.24308696 4.74475662 0.24308696 4.74475662 -2.5 3.1875 C-3.325 2.795625 -4.15 2.40375 -5 2 Z " fill="#8B4513" transform="translate(318,381)"/>
<path d="M0 0 C2.88419236 1.79018836 3.016524 3.06990924 3.8125 6.4375 C4.07042254 11.33802817 4.07042254 11.33802817 2 14 C-0.56265486 15.92199114 -1.83198949 16.01028636 -5.0625 15.8125 C-8.10460621 14.97106637 -9.24999713 14.5789516 -11 12 C-12.01231857 9.04091495 -12.10758873 7.41079334 -11.3125 4.375 C-8.43307085 -0.83539561 -5.67488808 -1.69039219 0 0 Z M-7 3 C-7.76522801 6.35458155 -7.76522801 6.35458155 -8 10 C-6.70735301 11.96431405 -6.70735301 11.96431405 -5 13 C-2.47636012 12.37466625 -2.47636012 12.37466625 0 11 C1.25153259 8.65904469 1.25153259 8.65904469 1 6 C-0.7712618 3.64477775 -0.7712618 3.64477775 -3 2 C-4.36893239 1.94729537 -4.36893239 1.94729537 -7 3 Z " fill="#8B4513" transform="translate(344,381)"/>
<path d="M0 0 C5.14860706 1.28715177 5.86461447 2.90658001 9 7 C9.33 4.69 9.66 2.38 10 0 C10.99 0 11.98 0 13 0 C13 4.95 13 9.9 13 15 C7.85139294 13.71284823 7.13538553 12.09341999 4 8 C3.67 10.31 3.34 12.62 3 15 C2.01 15 1.02 15 0 15 C0 10.05 0 5.1 0 0 Z " fill="#8B4513" transform="translate(216,381)"/>
<path d="M0 0 C1.98 0 3.96 0 6 0 C7.24591555 3.84651706 7.14781806 7.69053612 7.125 11.6875 C7.12886719 12.37650391 7.13273437 13.06550781 7.13671875 13.77539062 C7.12669335 18.87330665 7.12669335 18.87330665 6 20 C4.00041636 20.04080783 1.99954746 20.04254356 0 20 C-2.12390495 13.62828516 -1.13495783 6.5260075 0 0 Z " fill="#8B4513" transform="translate(447,347)"/>
<path d="M0 0 C1.588125 -0.061875 3.17625 -0.12375 4.8125 -0.1875 C6.15248047 -0.23970703 6.15248047 -0.23970703 7.51953125 -0.29296875 C10 0 10 0 11.80078125 1.23046875 C13.31117943 3.45916704 13.40177304 4.82269557 13.375 7.5 C13.38273438 8.2734375 13.39046875 9.046875 13.3984375 9.84375 C13 12 13 12 11.80078125 13.76953125 C9.3673366 15.43229712 7.73064655 15.30119402 4.8125 15.1875 C3.224375 15.125625 1.63625 15.06375 0 15 C0 10.05 0 5.1 0 0 Z M3 3 C3 6.3 3 9.6 3 13 C4.98 12.67 6.96 12.34 9 12 C10.04214691 7.38492226 10.04214691 7.38492226 9 3 C7.02 3 5.04 3 3 3 Z " fill="#8B4513" transform="translate(242,381)"/>
<path d="M0 0 C1.36125 0.37125 1.36125 0.37125 2.75 0.75 C3.08 2.07 3.41 3.39 3.75 4.75 C0.78 4.255 0.78 4.255 -2.25 3.75 C-2.25 4.41 -2.25 5.07 -2.25 5.75 C-1.280625 6.141875 -0.31125 6.53375 0.6875 6.9375 C3.75 8.75 3.75 8.75 4.625 11.4375 C4.686875 12.5821875 4.686875 12.5821875 4.75 13.75 C3.1875 15.3125 3.1875 15.3125 0.75 16.75 C-3 16.4375 -3 16.4375 -6.25 15.75 C-6.58 14.43 -6.91 13.11 -7.25 11.75 C-4.94 12.08 -2.63 12.41 -0.25 12.75 C-0.25 12.09 -0.25 11.43 -0.25 10.75 C-1.219375 10.3375 -2.18875 9.925 -3.1875 9.5 C-6.25 7.75 -6.25 7.75 -7.375 5.8125 C-7.25 3.75 -7.25 3.75 -5.6875 1.4375 C-3.25 -0.25 -3.25 -0.25 0 0 Z " fill="#8B4513" transform="translate(428.25,380.25)"/>
<path d="M0 0 C0.99 0 1.98 0 3 0 C3.33 1.65 3.66 3.3 4 5 C4.763125 4.175 5.52625 3.35 6.3125 2.5 C9 0 9 0 12 0 C10.79618552 2.49361571 9.54571278 4.68143083 8 7 C8.680625 7.7425 9.36125 8.485 10.0625 9.25 C12 12 12 12 11.75 14.3125 C11.5025 14.869375 11.255 15.42625 11 16 C10.21625 15.195625 9.4325 14.39125 8.625 13.5625 C6.28017144 11.01309583 6.28017144 11.01309583 4 10 C3.67 11.65 3.34 13.3 3 15 C2.01 15 1.02 15 0 15 C0 10.05 0 5.1 0 0 Z " fill="#8B4513" transform="translate(360,381)"/>
<path d="M0 0 C0.99 0 1.98 0 3 0 C3.33 1.65 3.66 3.3 4 5 C4.763125 4.175 5.52625 3.35 6.3125 2.5 C9 0 9 0 12 0 C10.79618552 2.49361571 9.54571278 4.68143083 8 7 C8.680625 7.7425 9.36125 8.485 10.0625 9.25 C12 12 12 12 11.75 14.3125 C11.5025 14.869375 11.255 15.42625 11 16 C10.21625 15.195625 9.4325 14.39125 8.625 13.5625 C6.28017144 11.01309583 6.28017144 11.01309583 4 10 C3.67 11.65 3.34 13.3 3 15 C2.01 15 1.02 15 0 15 C0 10.05 0 5.1 0 0 Z " fill="#8B4513" transform="translate(130,381)"/>
<path d="M0 0 C1.82421875 0.1328125 1.82421875 0.1328125 4 1 C5.51953125 3.6171875 5.51953125 3.6171875 6.8125 6.875 C7.25207031 7.94492187 7.69164062 9.01484375 8.14453125 10.1171875 C9 13 9 13 8 16 C7.01 15.34 6.02 14.68 5 14 C5 13.34 5 12.68 5 12 C0.7212019 12.41586354 0.7212019 12.41586354 -2.875 14.5625 C-3.24625 15.036875 -3.6175 15.51125 -4 16 C-5.16161779 13.13421241 -4.9946154 11.98369837 -4.00390625 8.984375 C-3.52824219 7.91703125 -3.05257812 6.8496875 -2.5625 5.75 C-2.08941406 4.67234375 -1.61632812 3.5946875 -1.12890625 2.484375 C-0.75636719 1.66453125 -0.38382813 0.8446875 0 0 Z M1 6 C0.67 6.99 0.34 7.98 0 9 C0.99 9 1.98 9 3 9 C2.67 8.01 2.34 7.02 2 6 C1.67 6 1.34 6 1 6 Z " fill="#8B4513" transform="translate(196,381)"/>
<path d="M0 0 C1.82421875 0.1328125 1.82421875 0.1328125 4 1 C5.51953125 3.6171875 5.51953125 3.6171875 6.8125 6.875 C7.25207031 7.94492187 7.69164063 9.01484375 8.14453125 10.1171875 C9 13 9 13 8 16 C7.01 15.34 6.02 14.68 5 14 C5 13.34 5 12.68 5 12 C2.69 12 0.38 12 -2 12 C-2.33 13.32 -2.66 14.64 -3 16 C-3.66 15.67 -4.32 15.34 -5 15 C-4.43174347 9.45949887 -2.37113483 4.96284034 0 0 Z M1 5 C0.67 6.32 0.34 7.64 0 9 C0.99 9 1.98 9 3 9 C2.34 7.68 1.68 6.36 1 5 Z " fill="#8B4513" transform="translate(110,381)"/>
<path d="M0 0 C3.3 0 6.6 0 10 0 C9.67 0.99 9.34 1.98 9 3 C7.02 3 5.04 3 3 3 C3 3.99 3 4.98 3 6 C4.98 6 6.96 6 9 6 C9 6.99 9 7.98 9 9 C7.02 9 5.04 9 3 9 C3 10.32 3 11.64 3 13 C5.31 13 7.62 13 10 13 C10 13.66 10 14.32 10 15 C6.7 15 3.4 15 0 15 C0 10.05 0 5.1 0 0 Z " fill="#8B4513" transform="translate(154,381)"/>
<path d="M0 0 C3.3 0 6.6 0 10 0 C9.67 0.99 9.34 1.98 9 3 C7.02 3 5.04 3 3 3 C3 3.99 3 4.98 3 6 C4.98 6 6.96 6 9 6 C9 6.99 9 7.98 9 9 C7.02 9 5.04 9 3 9 C3 10.32 3 11.64 3 13 C5.31 13 7.62 13 10 13 C10 13.66 10 14.32 10 15 C6.7 15 3.4 15 0 15 C0 10.05 0 5.1 0 0 Z " fill="#8B4513" transform="translate(400,381)"/>
<path d="M0 0 C0 0.99 0 1.98 0 3 C-1.7015625 3.2165625 -1.7015625 3.2165625 -3.4375 3.4375 C-6.80777201 3.61171478 -6.80777201 3.61171478 -8 5 C-8.04092937 7.33297433 -8.04241723 9.66705225 -8 12 C-5.36 12 -2.72 12 0 12 C0 12.99 0 13.98 0 15 C-6.19169329 16.45686901 -6.19169329 16.45686901 -9.875 14.375 C-12.24323604 11.72814796 -12.9139874 10.52651675 -13 7 C-12.0638375 3.90346249 -11.29576678 2.29576678 -9 0 C-5.7295226 -1.24052591 -3.35038257 -0.83759564 0 0 Z " fill="#8B4513" transform="translate(295,381)"/>
<path d="M0 0 C0 0.99 0 1.98 0 3 C-1.7015625 3.2165625 -1.7015625 3.2165625 -3.4375 3.4375 C-6.80777201 3.61171478 -6.80777201 3.61171478 -8 5 C-8.04092937 7.33297433 -8.04241723 9.66705225 -8 12 C-5.36 12 -2.72 12 0 12 C0 12.99 0 13.98 0 15 C-6.19169329 16.45686901 -6.19169329 16.45686901 -9.875 14.375 C-12.24323604 11.72814796 -12.9139874 10.52651675 -13 7 C-12.0638375 3.90346249 -11.29576678 2.29576678 -9 0 C-5.7295226 -1.24052591 -3.35038257 -0.83759564 0 0 Z " fill="#8B4513" transform="translate(94,381)"/>
<path d="M0 0 C2.31 0 4.62 0 7 0 C7 4.95 7 9.9 7 15 C6.34 15 5.68 15 5 15 C5 14.34 5 13.68 5 13 C3.35 13 1.7 13 0 13 C-0.83796731 8.34462607 -1.0161692 4.62921525 0 0 Z M4 2 C5 5 5 5 5 5 Z " fill="#8B4513" transform="translate(447,331)"/>
<path d="M0 0 C0.99 0 1.98 0 3 0 C3 4.95 3 9.9 3 15 C2.01 15 1.02 15 0 15 C0 10.05 0 5.1 0 0 Z " fill="#8B4513" transform="translate(384,381)"/>
</svg>
